<svg xmlns="http://www.w3.org/2000/svg" xmlns:xlink="http://www.w3.org/1999/xlink" width="414" zoomAndPan="magnify" viewBox="0 0 310.5 311.25" height="415" preserveAspectRatio="xMidYMid meet" version="1.0"><defs><filter x="0%" y="0%" width="100%" height="100%" id="28e41c585b"><feColorMatrix values="0 0 0 0 1 0 0 0 0 1 0 0 0 0 1 0 0 0 1 0" color-interpolation-filters="sRGB"/></filter><clipPath id="61f5aca8cb"><path d="M 0.125 0 L 309.878906 0 L 309.878906 310.5 L 0.125 310.5 Z M 0.125 0 " clip-rule="nonzero"/></clipPath><clipPath id="93e1e5e41c"><path d="M 0.125 24.460938 L 309.878906 24.460938 L 309.878906 310.5 L 0.125 310.5 Z M 0.125 24.460938 " clip-rule="nonzero"/></clipPath><mask id="46fd5f204e"><g filter="url(#28e41c585b)"><rect x="-31.05" width="372.6" fill="#000000" y="-31.125" height="373.499999" fill-opacity="0.5176"/></g></mask><clipPath id="44bba39a02"><rect x="0" width="147" y="0" height="92"/></clipPath><clipPath id="4356b74b54"><path d="M 0.125 144 L 72 144 L 72 209 L 0.125 209 Z M 0.125 144 " clip-rule="nonzero"/></clipPath><clipPath id="6dbad78f0c"><path d="M 216 183 L 309.878906 183 L 309.878906 267 L 216 267 Z M 216 183 " clip-rule="nonzero"/></clipPath><clipPath id="817bda7892"><path d="M 0.125 0 L 115 0 L 115 115 L 0.125 115 Z M 0.125 0 " clip-rule="nonzero"/></clipPath><clipPath id="2b626a7a08"><path d="M 48.597656 -31.007812 L 139.484375 49.480469 L 57.007812 142.613281 L -33.878906 62.125 Z M 48.597656 -31.007812 " clip-rule="nonzero"/></clipPath><clipPath id="6dc1ae05e6"><path d="M 48.597656 -31.007812 L 139.484375 49.480469 L 57.007812 142.613281 L -33.878906 62.125 Z M 48.597656 -31.007812 " clip-rule="nonzero"/></clipPath><clipPath id="1f56980cd1"><path d="M 25 24 L 89 24 L 89 88 L 25 88 Z M 25 24 " clip-rule="nonzero"/></clipPath><clipPath id="aaad7c3f77"><path d="M 48.597656 -31.007812 L 139.484375 49.480469 L 57.007812 142.613281 L -33.878906 62.125 Z M 48.597656 -31.007812 " clip-rule="nonzero"/></clipPath><clipPath id="1489430917"><path d="M 48.597656 -31.007812 L 139.484375 49.480469 L 57.007812 142.613281 L -33.878906 62.125 Z M 48.597656 -31.007812 " clip-rule="nonzero"/></clipPath></defs><g clip-path="url(#61f5aca8cb)"><path fill="#ffffff" d="M 0.125 0 L 310.375 0 L 310.375 317.746094 L 0.125 317.746094 Z M 0.125 0 " fill-opacity="1" fill-rule="nonzero"/><path fill="#ffffff" d="M 0.125 0 L 310.375 0 L 310.375 311 L 0.125 311 Z M 0.125 0 " fill-opacity="1" fill-rule="nonzero"/><path fill="#c2d5f4" d="M 0.125 0 L 310.375 0 L 310.375 311 L 0.125 311 Z M 0.125 0 " fill-opacity="1" fill-rule="nonzero"/></g><g clip-path="url(#93e1e5e41c)"><path fill="#c2d5f4" d="M 310.375 24.460938 L 0.125 24.460938 L 0.125 335.464844 L 310.375 335.464844 Z M 310.375 24.460938 " fill-opacity="1" fill-rule="nonzero"/></g><path fill="#ffffff" d="M 165.652344 89.171875 C 167.738281 89.171875 169.800781 89.375 171.84375 89.789062 C 172.03125 88.847656 172.273438 87.917969 172.566406 87.003906 C 172.859375 86.085938 173.207031 85.191406 173.601562 84.3125 C 173.996094 83.4375 174.441406 82.585938 174.929688 81.757812 C 175.421875 80.933594 175.960938 80.136719 176.539062 79.371094 C 177.121094 78.605469 177.746094 77.875 178.410156 77.179688 C 179.074219 76.484375 179.773438 75.828125 180.511719 75.210938 C 181.25 74.59375 182.019531 74.023438 182.824219 73.492188 C 183.628906 72.964844 184.457031 72.480469 185.316406 72.046875 C 186.171875 71.613281 187.050781 71.226562 187.953125 70.890625 C 188.851562 70.554688 189.769531 70.269531 190.703125 70.039062 C 191.636719 69.804688 192.578125 69.625 193.535156 69.5 C 194.488281 69.375 195.445312 69.304688 196.40625 69.285156 C 197.367188 69.269531 198.328125 69.304688 199.285156 69.398438 C 200.242188 69.488281 201.191406 69.632812 202.132812 69.832031 C 203.070312 70.03125 204 70.28125 204.910156 70.582031 C 205.824219 70.886719 206.714844 71.238281 207.589844 71.644531 C 207.976562 70.601562 208.410156 69.582031 208.898438 68.582031 C 209.382812 67.585938 209.917969 66.613281 210.5 65.664062 C 211.078125 64.71875 211.707031 63.800781 212.375 62.917969 C 213.046875 62.03125 213.761719 61.179688 214.515625 60.367188 C 215.269531 59.550781 216.058594 58.773438 216.890625 58.035156 C 217.71875 57.296875 218.585938 56.601562 219.480469 55.945312 C 220.378906 55.292969 221.308594 54.683594 222.265625 54.121094 C 223.222656 53.558594 224.207031 53.042969 225.214844 52.578125 C 226.222656 52.109375 227.25 51.695312 228.300781 51.328125 C 229.347656 50.960938 230.414062 50.648438 231.492188 50.386719 C 232.570312 50.125 233.660156 49.914062 234.761719 49.757812 C 235.859375 49.605469 236.964844 49.503906 238.074219 49.457031 C 239.183594 49.40625 240.292969 49.414062 241.402344 49.476562 C 242.511719 49.535156 243.617188 49.652344 244.714844 49.820312 C 245.8125 49.988281 246.898438 50.210938 247.976562 50.488281 C 249.050781 50.761719 250.109375 51.089844 251.15625 51.46875 C 252.199219 51.847656 253.222656 52.277344 254.226562 52.757812 C 255.226562 53.234375 256.203125 53.761719 257.152344 54.335938 C 258.105469 54.910156 259.023438 55.53125 259.914062 56.195312 C 260.804688 56.859375 261.660156 57.566406 262.480469 58.316406 C 263.300781 59.0625 264.085938 59.851562 264.828125 60.675781 C 265.570312 61.5 266.273438 62.359375 266.933594 63.253906 C 267.59375 64.148438 268.207031 65.070312 268.777344 66.023438 C 269.347656 66.976562 269.867188 67.957031 270.34375 68.960938 C 270.816406 69.964844 271.238281 70.992188 271.613281 72.039062 C 271.988281 73.085938 272.308594 74.144531 272.578125 75.222656 C 272.847656 76.300781 273.0625 77.390625 273.226562 78.488281 C 273.390625 79.585938 273.5 80.691406 273.554688 81.800781 C 273.609375 82.910156 273.609375 84.019531 273.558594 85.128906 C 273.503906 86.238281 273.394531 87.34375 273.234375 88.441406 C 273.074219 89.539062 272.859375 90.628906 272.589844 91.707031 C 272.324219 92.785156 272.003906 93.847656 271.632812 94.894531 C 272.546875 94.929688 273.460938 95.007812 274.367188 95.128906 C 275.277344 95.253906 276.175781 95.417969 277.070312 95.628906 C 277.960938 95.839844 278.84375 96.09375 279.710938 96.386719 C 280.578125 96.683594 281.429688 97.019531 282.265625 97.398438 C 283.101562 97.777344 283.914062 98.191406 284.710938 98.648438 C 285.503906 99.105469 286.277344 99.601562 287.023438 100.132812 C 287.769531 100.664062 288.488281 101.230469 289.183594 101.828125 C 289.875 102.429688 290.535156 103.0625 291.167969 103.730469 C 291.796875 104.394531 292.394531 105.089844 292.960938 105.8125 C 293.523438 106.535156 294.050781 107.28125 294.542969 108.058594 C 295.03125 108.832031 295.484375 109.628906 295.898438 110.445312 C 296.3125 111.261719 296.6875 112.097656 297.019531 112.953125 C 297.355469 113.808594 297.644531 114.675781 297.894531 115.558594 C 298.144531 116.441406 298.351562 117.332031 298.511719 118.234375 C 298.675781 119.136719 298.792969 120.042969 298.867188 120.957031 C 298.945312 121.871094 298.972656 122.785156 298.960938 123.703125 C 298.945312 124.621094 298.890625 125.535156 298.785156 126.445312 C 298.683594 127.355469 298.539062 128.261719 298.347656 129.15625 C 298.160156 130.054688 297.925781 130.941406 297.648438 131.8125 C 297.375 132.6875 297.058594 133.546875 296.699219 134.390625 C 296.339844 135.234375 295.941406 136.058594 295.503906 136.863281 C 295.0625 137.667969 294.585938 138.453125 294.074219 139.210938 C 293.558594 139.96875 293.007812 140.703125 292.425781 141.40625 C 291.839844 142.113281 291.222656 142.789062 290.570312 143.433594 C 289.917969 144.082031 289.238281 144.691406 288.53125 145.273438 C 287.820312 145.851562 287.082031 146.398438 286.320312 146.90625 C 285.558594 147.414062 284.773438 147.886719 283.964844 148.316406 C 283.15625 148.75 282.328125 149.144531 281.480469 149.496094 C 280.636719 149.847656 279.773438 150.160156 278.898438 150.429688 C 278.019531 150.695312 277.132812 150.921875 276.234375 151.105469 C 275.335938 151.289062 274.433594 151.429688 273.519531 151.523438 C 272.609375 151.621094 271.695312 151.671875 270.777344 151.679688 L 165.652344 151.679688 C 164.628906 151.679688 163.605469 151.628906 162.589844 151.527344 C 161.570312 151.425781 160.558594 151.277344 159.554688 151.078125 C 158.550781 150.878906 157.558594 150.628906 156.578125 150.332031 C 155.601562 150.035156 154.636719 149.691406 153.691406 149.300781 C 152.746094 148.90625 151.820312 148.46875 150.917969 147.988281 C 150.015625 147.503906 149.140625 146.980469 148.289062 146.410156 C 147.4375 145.84375 146.617188 145.234375 145.824219 144.582031 C 145.035156 143.933594 144.277344 143.246094 143.550781 142.523438 C 142.828125 141.800781 142.140625 141.042969 141.492188 140.25 C 140.84375 139.460938 140.234375 138.640625 139.664062 137.789062 C 139.097656 136.9375 138.570312 136.058594 138.089844 135.15625 C 137.605469 134.253906 137.167969 133.332031 136.777344 132.382812 C 136.386719 131.4375 136.039062 130.476562 135.742188 129.496094 C 135.445312 128.515625 135.199219 127.527344 135 126.523438 C 134.796875 125.519531 134.648438 124.507812 134.546875 123.488281 C 134.449219 122.46875 134.398438 121.449219 134.398438 120.425781 C 134.398438 119.402344 134.449219 118.378906 134.546875 117.359375 C 134.648438 116.34375 134.796875 115.332031 135 114.328125 C 135.199219 113.324219 135.445312 112.332031 135.742188 111.351562 C 136.039062 110.371094 136.386719 109.410156 136.777344 108.464844 C 137.167969 107.519531 137.605469 106.59375 138.089844 105.691406 C 138.570312 104.789062 139.097656 103.910156 139.664062 103.0625 C 140.234375 102.210938 140.84375 101.386719 141.492188 100.597656 C 142.140625 99.804688 142.828125 99.046875 143.550781 98.324219 C 144.277344 97.601562 145.035156 96.914062 145.824219 96.265625 C 146.617188 95.617188 147.4375 95.007812 148.289062 94.4375 C 149.140625 93.867188 150.015625 93.34375 150.917969 92.859375 C 151.820312 92.378906 152.746094 91.941406 153.691406 91.550781 C 154.636719 91.15625 155.601562 90.8125 156.578125 90.515625 C 157.558594 90.21875 158.550781 89.972656 159.554688 89.769531 C 160.558594 89.570312 161.570312 89.421875 162.589844 89.320312 C 163.605469 89.21875 164.628906 89.171875 165.652344 89.171875 Z M 165.652344 89.171875 " fill-opacity="1" fill-rule="nonzero"/><g mask="url(#46fd5f204e)"><g transform="matrix(1, 0, 0, 1, 87, 48)"><g clip-path="url(#44bba39a02)"><path fill="#ffffff" d="M 28.476562 36.164062 C 30.300781 36.164062 32.109375 36.34375 33.898438 36.707031 C 34.0625 35.878906 34.273438 35.066406 34.53125 34.265625 C 34.789062 33.460938 35.089844 32.675781 35.4375 31.910156 C 35.785156 31.140625 36.171875 30.394531 36.605469 29.667969 C 37.035156 28.945312 37.503906 28.246094 38.015625 27.578125 C 38.523438 26.90625 39.070312 26.265625 39.652344 25.65625 C 40.234375 25.046875 40.847656 24.472656 41.496094 23.933594 C 42.140625 23.390625 42.816406 22.890625 43.519531 22.425781 C 44.222656 21.960938 44.953125 21.539062 45.703125 21.160156 C 46.453125 20.777344 47.226562 20.4375 48.015625 20.144531 C 48.804688 19.851562 49.609375 19.601562 50.425781 19.398438 C 51.242188 19.195312 52.070312 19.039062 52.90625 18.929688 C 53.742188 18.816406 54.578125 18.753906 55.421875 18.738281 C 56.265625 18.726562 57.105469 18.757812 57.945312 18.835938 C 58.785156 18.917969 59.613281 19.042969 60.441406 19.21875 C 61.265625 19.390625 62.074219 19.609375 62.875 19.875 C 63.675781 20.140625 64.457031 20.453125 65.222656 20.804688 C 65.5625 19.894531 65.945312 19 66.371094 18.125 C 66.796875 17.25 67.265625 16.398438 67.773438 15.570312 C 68.28125 14.742188 68.832031 13.9375 69.417969 13.164062 C 70.007812 12.386719 70.632812 11.644531 71.292969 10.929688 C 71.953125 10.214844 72.648438 9.535156 73.375 8.886719 C 74.101562 8.242188 74.859375 7.632812 75.644531 7.058594 C 76.433594 6.488281 77.246094 5.953125 78.085938 5.460938 C 78.925781 4.96875 79.785156 4.515625 80.667969 4.109375 C 81.550781 3.699219 82.453125 3.335938 83.371094 3.015625 C 84.289062 2.695312 85.222656 2.417969 86.167969 2.1875 C 87.113281 1.960938 88.066406 1.777344 89.03125 1.640625 C 89.996094 1.503906 90.964844 1.417969 91.933594 1.375 C 92.90625 1.332031 93.878906 1.339844 94.851562 1.394531 C 95.824219 1.445312 96.789062 1.546875 97.75 1.695312 C 98.714844 1.84375 99.664062 2.039062 100.609375 2.28125 C 101.550781 2.519531 102.480469 2.808594 103.394531 3.140625 C 104.308594 3.472656 105.203125 3.847656 106.082031 4.269531 C 106.960938 4.6875 107.816406 5.148438 108.648438 5.652344 C 109.480469 6.15625 110.289062 6.699219 111.066406 7.28125 C 111.847656 7.863281 112.597656 8.480469 113.316406 9.136719 C 114.035156 9.792969 114.722656 10.480469 115.371094 11.203125 C 116.023438 11.925781 116.640625 12.679688 117.21875 13.460938 C 117.796875 14.246094 118.335938 15.054688 118.832031 15.890625 C 119.332031 16.726562 119.789062 17.582031 120.203125 18.464844 C 120.621094 19.34375 120.992188 20.242188 121.320312 21.15625 C 121.644531 22.074219 121.925781 23.003906 122.164062 23.949219 C 122.402344 24.890625 122.589844 25.84375 122.734375 26.808594 C 122.875 27.769531 122.972656 28.738281 123.019531 29.710938 C 123.070312 30.679688 123.070312 31.652344 123.023438 32.625 C 122.976562 33.597656 122.882812 34.566406 122.742188 35.527344 C 122.601562 36.492188 122.414062 37.445312 122.179688 38.386719 C 121.945312 39.332031 121.664062 40.265625 121.339844 41.179688 C 122.148438 41.203125 122.953125 41.261719 123.757812 41.363281 C 124.558594 41.464844 125.355469 41.601562 126.144531 41.78125 C 126.933594 41.957031 127.710938 42.175781 128.480469 42.425781 C 129.25 42.679688 130.003906 42.972656 130.742188 43.300781 C 131.484375 43.625 132.203125 43.988281 132.910156 44.386719 C 133.613281 44.785156 134.296875 45.214844 134.960938 45.679688 C 135.621094 46.144531 136.261719 46.640625 136.875 47.164062 C 137.488281 47.691406 138.074219 48.246094 138.636719 48.832031 C 139.195312 49.414062 139.726562 50.023438 140.226562 50.660156 C 140.726562 51.296875 141.195312 51.953125 141.632812 52.636719 C 142.066406 53.316406 142.46875 54.019531 142.839844 54.738281 C 143.207031 55.457031 143.539062 56.195312 143.835938 56.949219 C 144.128906 57.699219 144.390625 58.464844 144.609375 59.246094 C 144.832031 60.023438 145.015625 60.808594 145.160156 61.605469 C 145.304688 62.402344 145.410156 63.203125 145.476562 64.007812 C 145.542969 64.816406 145.570312 65.621094 145.558594 66.429688 C 145.546875 67.242188 145.496094 68.046875 145.402344 68.851562 C 145.3125 69.65625 145.183594 70.453125 145.015625 71.242188 C 144.847656 72.035156 144.640625 72.816406 144.394531 73.585938 C 144.148438 74.359375 143.867188 75.113281 143.550781 75.859375 C 143.230469 76.601562 142.875 77.328125 142.488281 78.039062 C 142.097656 78.746094 141.675781 79.433594 141.21875 80.101562 C 140.761719 80.769531 140.273438 81.414062 139.753906 82.035156 C 139.234375 82.65625 138.6875 83.25 138.109375 83.816406 C 137.53125 84.382812 136.929688 84.917969 136.296875 85.425781 C 135.667969 85.933594 135.015625 86.410156 134.339844 86.855469 C 133.664062 87.300781 132.96875 87.710938 132.25 88.085938 C 131.535156 88.460938 130.800781 88.800781 130.054688 89.105469 C 129.304688 89.410156 128.542969 89.679688 127.765625 89.910156 C 126.992188 90.140625 126.207031 90.332031 125.410156 90.488281 C 124.617188 90.640625 123.816406 90.753906 123.011719 90.832031 C 122.207031 90.90625 121.398438 90.945312 120.589844 90.941406 L 28.476562 90.941406 C 27.578125 90.941406 26.683594 90.898438 25.789062 90.808594 C 24.898438 90.722656 24.011719 90.589844 23.132812 90.414062 C 22.253906 90.238281 21.382812 90.023438 20.523438 89.761719 C 19.667969 89.5 18.824219 89.199219 17.996094 88.855469 C 17.164062 88.511719 16.355469 88.128906 15.566406 87.707031 C 14.773438 87.285156 14.003906 86.824219 13.261719 86.324219 C 12.515625 85.828125 11.792969 85.292969 11.101562 84.726562 C 10.40625 84.15625 9.742188 83.554688 9.109375 82.921875 C 8.476562 82.285156 7.875 81.621094 7.304688 80.929688 C 6.734375 80.234375 6.203125 79.515625 5.703125 78.769531 C 5.207031 78.023438 4.746094 77.257812 4.324219 76.464844 C 3.898438 75.675781 3.515625 74.863281 3.171875 74.035156 C 2.828125 73.207031 2.527344 72.363281 2.269531 71.503906 C 2.007812 70.648438 1.789062 69.777344 1.613281 68.898438 C 1.441406 68.019531 1.308594 67.132812 1.21875 66.238281 C 1.132812 65.347656 1.089844 64.453125 1.089844 63.554688 C 1.089844 62.660156 1.132812 61.761719 1.21875 60.871094 C 1.308594 59.976562 1.441406 59.09375 1.613281 58.210938 C 1.789062 57.332031 2.007812 56.464844 2.269531 55.605469 C 2.527344 54.746094 2.828125 53.902344 3.171875 53.074219 C 3.515625 52.246094 3.898438 51.4375 4.324219 50.644531 C 4.746094 49.855469 5.207031 49.085938 5.703125 48.339844 C 6.203125 47.59375 6.734375 46.875 7.304688 46.179688 C 7.875 45.488281 8.476562 44.824219 9.109375 44.191406 C 9.742188 43.554688 10.40625 42.953125 11.101562 42.386719 C 11.792969 41.816406 12.515625 41.28125 13.261719 40.785156 C 14.003906 40.285156 14.773438 39.824219 15.566406 39.402344 C 16.355469 38.980469 17.164062 38.597656 17.996094 38.253906 C 18.824219 37.910156 19.667969 37.609375 20.523438 37.347656 C 21.382812 37.085938 22.253906 36.871094 23.132812 36.695312 C 24.011719 36.519531 24.898438 36.390625 25.789062 36.300781 C 26.683594 36.214844 27.578125 36.167969 28.476562 36.167969 Z M 28.476562 36.164062 " fill-opacity="1" fill-rule="nonzero"/></g></g></g><g clip-path="url(#4356b74b54)"><path fill="#ffffff" d="M 52.195312 169.535156 C 50.882812 169.53125 49.585938 169.664062 48.300781 169.921875 C 48.179688 169.328125 48.027344 168.746094 47.84375 168.167969 C 47.660156 167.59375 47.441406 167.027344 47.191406 166.476562 C 46.945312 165.925781 46.664062 165.386719 46.355469 164.867188 C 46.046875 164.347656 45.707031 163.847656 45.34375 163.363281 C 44.976562 162.882812 44.585938 162.421875 44.167969 161.984375 C 43.75 161.546875 43.308594 161.132812 42.84375 160.746094 C 42.378906 160.359375 41.890625 159.996094 41.386719 159.664062 C 40.882812 159.332031 40.359375 159.027344 39.820312 158.753906 C 39.28125 158.480469 38.726562 158.238281 38.160156 158.027344 C 37.589844 157.816406 37.015625 157.636719 36.425781 157.488281 C 35.839844 157.34375 35.246094 157.230469 34.644531 157.152344 C 34.046875 157.074219 33.441406 157.027344 32.835938 157.015625 C 32.230469 157.003906 31.628906 157.027344 31.027344 157.085938 C 30.421875 157.144531 29.824219 157.234375 29.234375 157.359375 C 28.640625 157.484375 28.058594 157.640625 27.484375 157.832031 C 26.910156 158.023438 26.347656 158.246094 25.796875 158.5 C 25.554688 157.839844 25.285156 157.195312 24.980469 156.5625 C 24.675781 155.933594 24.339844 155.316406 23.976562 154.71875 C 23.613281 154.117188 23.21875 153.539062 22.796875 152.976562 C 22.375 152.417969 21.925781 151.878906 21.453125 151.363281 C 20.980469 150.847656 20.480469 150.355469 19.957031 149.886719 C 19.433594 149.417969 18.890625 148.976562 18.324219 148.5625 C 17.757812 148.148438 17.175781 147.765625 16.570312 147.40625 C 15.96875 147.050781 15.347656 146.722656 14.710938 146.429688 C 14.078125 146.132812 13.425781 145.867188 12.765625 145.636719 C 12.105469 145.402344 11.433594 145.203125 10.75 145.035156 C 10.070312 144.871094 9.382812 144.738281 8.6875 144.636719 C 7.996094 144.539062 7.296875 144.472656 6.597656 144.445312 C 5.894531 144.414062 5.195312 144.417969 4.496094 144.453125 C 3.796875 144.492188 3.097656 144.566406 2.40625 144.671875 C 1.710938 144.777344 1.027344 144.917969 0.347656 145.089844 C -0.332031 145.265625 -1.003906 145.472656 -1.660156 145.710938 C -2.320312 145.949219 -2.964844 146.222656 -3.597656 146.523438 C -4.230469 146.824219 -4.847656 147.160156 -5.449219 147.523438 C -6.046875 147.886719 -6.628906 148.277344 -7.191406 148.695312 C -7.75 149.117188 -8.289062 149.5625 -8.808594 150.035156 C -9.328125 150.507812 -9.820312 151.007812 -10.289062 151.527344 C -10.757812 152.050781 -11.199219 152.59375 -11.617188 153.15625 C -12.03125 153.722656 -12.417969 154.304688 -12.777344 154.910156 C -13.136719 155.511719 -13.464844 156.128906 -13.761719 156.765625 C -14.058594 157.398438 -14.324219 158.046875 -14.558594 158.710938 C -14.792969 159.371094 -14.992188 160.039062 -15.160156 160.722656 C -15.332031 161.402344 -15.464844 162.089844 -15.566406 162.785156 C -15.667969 163.476562 -15.734375 164.175781 -15.765625 164.875 C -15.796875 165.574219 -15.796875 166.277344 -15.761719 166.976562 C -15.722656 167.675781 -15.652344 168.375 -15.550781 169.066406 C -15.445312 169.761719 -15.304688 170.445312 -15.132812 171.128906 C -14.960938 171.808594 -14.757812 172.476562 -14.519531 173.136719 C -15.097656 173.15625 -15.675781 173.203125 -16.25 173.277344 C -16.824219 173.351562 -17.394531 173.453125 -17.960938 173.582031 C -18.523438 173.710938 -19.082031 173.867188 -19.628906 174.050781 C -20.179688 174.238281 -20.71875 174.445312 -21.246094 174.683594 C -21.777344 174.917969 -22.292969 175.179688 -22.796875 175.46875 C -23.300781 175.753906 -23.789062 176.0625 -24.261719 176.398438 C -24.734375 176.730469 -25.191406 177.089844 -25.628906 177.464844 C -26.066406 177.84375 -26.488281 178.242188 -26.886719 178.664062 C -27.289062 179.082031 -27.664062 179.519531 -28.023438 179.976562 C -28.378906 180.429688 -28.714844 180.902344 -29.027344 181.390625 C -29.339844 181.878906 -29.625 182.382812 -29.886719 182.898438 C -30.152344 183.414062 -30.386719 183.941406 -30.597656 184.480469 C -30.8125 185.019531 -30.996094 185.570312 -31.152344 186.128906 C -31.3125 186.683594 -31.441406 187.246094 -31.546875 187.816406 C -31.648438 188.386719 -31.722656 188.960938 -31.773438 189.539062 C -31.820312 190.117188 -31.839844 190.695312 -31.828125 191.273438 C -31.820312 191.851562 -31.785156 192.429688 -31.71875 193.007812 C -31.65625 193.582031 -31.5625 194.152344 -31.441406 194.71875 C -31.320312 195.285156 -31.171875 195.847656 -31 196.398438 C -30.824219 196.949219 -30.625 197.492188 -30.394531 198.027344 C -30.167969 198.558594 -29.914062 199.078125 -29.636719 199.585938 C -29.359375 200.09375 -29.058594 200.589844 -28.730469 201.066406 C -28.40625 201.546875 -28.054688 202.007812 -27.683594 202.453125 C -27.316406 202.898438 -26.921875 203.324219 -26.511719 203.730469 C -26.097656 204.136719 -25.667969 204.523438 -25.21875 204.890625 C -24.765625 205.253906 -24.300781 205.597656 -23.816406 205.914062 C -23.335938 206.234375 -22.835938 206.53125 -22.324219 206.800781 C -21.8125 207.074219 -21.289062 207.320312 -20.753906 207.539062 C -20.21875 207.761719 -19.671875 207.953125 -19.117188 208.121094 C -18.5625 208.289062 -18 208.429688 -17.433594 208.542969 C -16.867188 208.652344 -16.292969 208.738281 -15.714844 208.796875 C -15.140625 208.851562 -14.5625 208.882812 -13.984375 208.882812 L 52.195312 208.882812 C 52.84375 208.886719 53.488281 208.859375 54.132812 208.800781 C 54.777344 208.738281 55.417969 208.648438 56.050781 208.527344 C 56.6875 208.402344 57.316406 208.25 57.933594 208.066406 C 58.554688 207.878906 59.164062 207.664062 59.761719 207.421875 C 60.363281 207.175781 60.949219 206.902344 61.519531 206.597656 C 62.089844 206.296875 62.648438 205.96875 63.1875 205.609375 C 63.726562 205.253906 64.246094 204.871094 64.746094 204.460938 C 65.25 204.050781 65.730469 203.621094 66.1875 203.164062 C 66.648438 202.707031 67.082031 202.230469 67.492188 201.730469 C 67.90625 201.230469 68.292969 200.714844 68.652344 200.175781 C 69.011719 199.640625 69.347656 199.085938 69.652344 198.515625 C 69.957031 197.945312 70.234375 197.363281 70.484375 196.765625 C 70.734375 196.167969 70.953125 195.558594 71.140625 194.941406 C 71.328125 194.320312 71.484375 193.695312 71.613281 193.0625 C 71.738281 192.425781 71.835938 191.789062 71.898438 191.144531 C 71.960938 190.5 71.992188 189.855469 71.992188 189.207031 C 71.992188 188.5625 71.960938 187.914062 71.898438 187.273438 C 71.835938 186.628906 71.738281 185.988281 71.613281 185.355469 C 71.484375 184.71875 71.328125 184.09375 71.140625 183.472656 C 70.953125 182.855469 70.734375 182.246094 70.484375 181.648438 C 70.234375 181.054688 69.957031 180.46875 69.652344 179.898438 C 69.347656 179.328125 69.011719 178.777344 68.652344 178.238281 C 68.292969 177.703125 67.90625 177.183594 67.492188 176.683594 C 67.082031 176.1875 66.648438 175.707031 66.1875 175.253906 C 65.730469 174.796875 65.25 174.363281 64.746094 173.953125 C 64.246094 173.546875 63.726562 173.164062 63.1875 172.804688 C 62.648438 172.449219 62.089844 172.117188 61.519531 171.816406 C 60.949219 171.511719 60.363281 171.238281 59.761719 170.996094 C 59.164062 170.75 58.554688 170.535156 57.933594 170.351562 C 57.316406 170.167969 56.6875 170.011719 56.050781 169.890625 C 55.417969 169.765625 54.777344 169.675781 54.132812 169.617188 C 53.488281 169.554688 52.84375 169.527344 52.195312 169.53125 Z M 52.195312 169.535156 " fill-opacity="1" fill-rule="nonzero"/></g><g clip-path="url(#6dbad78f0c)"><path fill="#ffffff" d="M 324.792969 215.699219 C 323.105469 215.699219 321.4375 215.863281 319.785156 216.199219 C 319.632812 215.433594 319.4375 214.683594 319.199219 213.941406 C 318.960938 213.199219 318.679688 212.476562 318.359375 211.765625 C 318.039062 211.058594 317.679688 210.367188 317.285156 209.699219 C 316.886719 209.03125 316.453125 208.386719 315.980469 207.765625 C 315.507812 207.144531 315.003906 206.554688 314.46875 205.992188 C 313.929688 205.429688 313.363281 204.898438 312.765625 204.398438 C 312.167969 203.898438 311.542969 203.4375 310.894531 203.007812 C 310.242188 202.578125 309.570312 202.191406 308.878906 201.835938 C 308.183594 201.484375 307.472656 201.171875 306.742188 200.902344 C 306.011719 200.628906 305.269531 200.398438 304.515625 200.210938 C 303.761719 200.023438 302.996094 199.878906 302.226562 199.777344 C 301.453125 199.675781 300.679688 199.617188 299.898438 199.601562 C 299.121094 199.589844 298.34375 199.617188 297.570312 199.691406 C 296.796875 199.765625 296.027344 199.882812 295.265625 200.042969 C 294.503906 200.203125 293.753906 200.40625 293.015625 200.652344 C 292.277344 200.898438 291.554688 201.183594 290.847656 201.511719 C 290.539062 200.660156 290.191406 199.828125 289.800781 199.015625 C 289.410156 198.199219 288.980469 197.40625 288.515625 196.632812 C 288.046875 195.859375 287.542969 195.109375 287 194.386719 C 286.460938 193.664062 285.882812 192.96875 285.273438 192.300781 C 284.664062 191.636719 284.023438 191 283.351562 190.398438 C 282.679688 189.792969 281.980469 189.222656 281.253906 188.6875 C 280.523438 188.152344 279.773438 187.65625 278.996094 187.195312 C 278.21875 186.734375 277.421875 186.3125 276.601562 185.929688 C 275.785156 185.546875 274.949219 185.207031 274.097656 184.90625 C 273.242188 184.605469 272.378906 184.347656 271.503906 184.128906 C 270.625 183.914062 269.738281 183.742188 268.84375 183.613281 C 267.949219 183.484375 267.050781 183.402344 266.148438 183.359375 C 265.246094 183.320312 264.34375 183.324219 263.441406 183.375 C 262.539062 183.421875 261.644531 183.515625 260.75 183.652344 C 259.855469 183.789062 258.972656 183.96875 258.097656 184.191406 C 257.222656 184.414062 256.359375 184.679688 255.511719 184.988281 C 254.660156 185.296875 253.828125 185.648438 253.015625 186.035156 C 252.199219 186.425781 251.40625 186.855469 250.632812 187.324219 C 249.859375 187.792969 249.113281 188.296875 248.390625 188.839844 C 247.667969 189.378906 246.972656 189.957031 246.304688 190.566406 C 245.636719 191.175781 245.003906 191.816406 244.398438 192.488281 C 243.796875 193.160156 243.226562 193.859375 242.691406 194.589844 C 242.15625 195.316406 241.660156 196.070312 241.199219 196.847656 C 240.738281 197.625 240.316406 198.421875 239.933594 199.242188 C 239.550781 200.058594 239.210938 200.894531 238.910156 201.746094 C 238.609375 202.597656 238.351562 203.464844 238.136719 204.339844 C 237.921875 205.21875 237.75 206.105469 237.621094 206.996094 C 237.492188 207.890625 237.410156 208.789062 237.371094 209.691406 C 237.332031 210.59375 237.335938 211.496094 237.382812 212.398438 C 237.433594 213.300781 237.523438 214.199219 237.660156 215.09375 C 237.796875 215.984375 237.980469 216.871094 238.203125 217.746094 C 238.425781 218.621094 238.691406 219.484375 239 220.332031 C 238.257812 220.355469 237.515625 220.414062 236.777344 220.507812 C 236.035156 220.605469 235.304688 220.734375 234.578125 220.902344 C 233.851562 221.070312 233.136719 221.269531 232.429688 221.507812 C 231.722656 221.742188 231.027344 222.011719 230.347656 222.316406 C 229.667969 222.621094 229.003906 222.957031 228.355469 223.324219 C 227.707031 223.695312 227.078125 224.09375 226.472656 224.523438 C 225.863281 224.953125 225.273438 225.410156 224.710938 225.894531 C 224.144531 226.382812 223.605469 226.894531 223.09375 227.433594 C 222.578125 227.972656 222.089844 228.535156 221.628906 229.121094 C 221.171875 229.707031 220.742188 230.316406 220.339844 230.945312 C 219.9375 231.570312 219.570312 232.21875 219.230469 232.882812 C 218.894531 233.546875 218.589844 234.226562 218.316406 234.917969 C 218.042969 235.613281 217.808594 236.316406 217.601562 237.035156 C 217.398438 237.75 217.230469 238.476562 217.097656 239.210938 C 216.964844 239.941406 216.871094 240.679688 216.808594 241.421875 C 216.746094 242.167969 216.722656 242.910156 216.734375 243.65625 C 216.746094 244.398438 216.792969 245.144531 216.875 245.882812 C 216.957031 246.625 217.078125 247.359375 217.234375 248.085938 C 217.386719 248.816406 217.578125 249.535156 217.800781 250.246094 C 218.027344 250.957031 218.285156 251.65625 218.578125 252.339844 C 218.871094 253.023438 219.195312 253.695312 219.554688 254.347656 C 219.910156 255 220.300781 255.636719 220.71875 256.253906 C 221.140625 256.867188 221.589844 257.460938 222.066406 258.035156 C 222.542969 258.605469 223.046875 259.15625 223.578125 259.679688 C 224.105469 260.199219 224.660156 260.699219 225.242188 261.167969 C 225.820312 261.636719 226.417969 262.074219 227.042969 262.488281 C 227.664062 262.898438 228.304688 263.277344 228.960938 263.625 C 229.621094 263.976562 230.292969 264.292969 230.984375 264.574219 C 231.671875 264.859375 232.375 265.105469 233.085938 265.320312 C 233.800781 265.535156 234.523438 265.714844 235.253906 265.859375 C 235.984375 266.007812 236.722656 266.113281 237.460938 266.1875 C 238.203125 266.261719 238.949219 266.296875 239.691406 266.300781 L 324.792969 266.300781 C 325.621094 266.300781 326.449219 266.257812 327.273438 266.175781 C 328.097656 266.097656 328.917969 265.976562 329.730469 265.8125 C 330.542969 265.652344 331.34375 265.449219 332.136719 265.210938 C 332.929688 264.96875 333.710938 264.691406 334.476562 264.375 C 335.242188 264.054688 335.988281 263.703125 336.71875 263.3125 C 337.453125 262.921875 338.160156 262.496094 338.851562 262.035156 C 339.539062 261.574219 340.203125 261.082031 340.84375 260.554688 C 341.484375 260.03125 342.097656 259.476562 342.683594 258.890625 C 343.269531 258.304688 343.824219 257.691406 344.351562 257.050781 C 344.878906 256.410156 345.371094 255.742188 345.832031 255.054688 C 346.289062 254.367188 346.714844 253.65625 347.105469 252.925781 C 347.496094 252.195312 347.851562 251.445312 348.167969 250.679688 C 348.484375 249.914062 348.765625 249.136719 349.003906 248.34375 C 349.246094 247.550781 349.445312 246.746094 349.609375 245.933594 C 349.769531 245.121094 349.890625 244.304688 349.972656 243.476562 C 350.054688 242.652344 350.09375 241.828125 350.09375 241 C 350.09375 240.171875 350.054688 239.34375 349.972656 238.519531 C 349.890625 237.695312 349.769531 236.875 349.609375 236.0625 C 349.445312 235.25 349.246094 234.445312 349.003906 233.652344 C 348.765625 232.859375 348.484375 232.082031 348.167969 231.316406 C 347.851562 230.550781 347.496094 229.804688 347.105469 229.070312 C 346.714844 228.339844 346.289062 227.632812 345.832031 226.941406 C 345.371094 226.253906 344.878906 225.589844 344.351562 224.949219 C 343.824219 224.308594 343.269531 223.695312 342.683594 223.109375 C 342.097656 222.523438 341.484375 221.964844 340.84375 221.441406 C 340.203125 220.914062 339.539062 220.421875 338.851562 219.960938 C 338.160156 219.5 337.453125 219.074219 336.71875 218.683594 C 335.988281 218.292969 335.242188 217.941406 334.476562 217.625 C 333.710938 217.308594 332.929688 217.027344 332.136719 216.789062 C 331.34375 216.546875 330.542969 216.347656 329.730469 216.183594 C 328.917969 216.023438 328.097656 215.902344 327.273438 215.820312 C 326.449219 215.738281 325.621094 215.699219 324.792969 215.699219 Z M 324.792969 215.699219 " fill-opacity="1" fill-rule="nonzero"/></g><g clip-path="url(#817bda7892)"><g clip-path="url(#2b626a7a08)"><g clip-path="url(#6dc1ae05e6)"><path fill="#f9ad18" d="M 92.4375 87.820312 C 89.59375 89.324219 82.433594 85.625 78.640625 89.183594 C 72.570312 94.875 83.546875 112.648438 81.058594 113.503906 C 78.53125 114.375 71.261719 95.066406 63.070312 96.527344 C 58.613281 97.324219 56.121094 105.15625 54.230469 104.800781 C 52.070312 104.398438 51.34375 95.019531 46.667969 94.578125 C 38.378906 93.804688 27.9375 115.730469 25.988281 114.5625 C 24.019531 113.390625 35.917969 91.972656 29.871094 86.246094 C 26.605469 83.15625 17.199219 88.613281 15.757812 86.832031 C 14.570312 85.367188 22.640625 77.503906 20.296875 73.742188 C 15.894531 66.675781 -8.917969 74.332031 -9.21875 72.171875 C -9.601562 69.402344 14.925781 67.132812 15.378906 58.824219 C 15.636719 54.054688 4.261719 49.097656 4.523438 47.195312 C 4.890625 44.503906 16.980469 46.09375 18.59375 41.542969 C 21.371094 33.703125 1.878906 21.746094 3.644531 19.753906 C 5.394531 17.777344 22.214844 33.910156 29.050781 29.167969 C 33.207031 26.285156 28.261719 13.285156 30.417969 12.265625 C 33.011719 11.042969 38.660156 20.710938 43.390625 19.226562 C 51.332031 16.742188 47.496094 -5.875 51.085938 -6.59375 C 53 -6.976562 53.753906 16.761719 61.792969 18.921875 C 66.886719 20.289062 71.414062 10.332031 73.292969 10.488281 C 75.207031 10.644531 74.558594 22.160156 78.992188 25.09375 C 85.933594 29.691406 99.683594 14.238281 101.1875 16.34375 C 102.136719 17.675781 88.421875 29.234375 91.726562 36.875 C 94.042969 42.238281 103.320312 43.117188 103.949219 44.679688 C 104.652344 46.429688 96.300781 50.0625 96.621094 55.800781 C 97.082031 64.109375 114.941406 67.507812 114.523438 69.792969 C 114.152344 71.832031 95.792969 65.871094 91.808594 73.175781 C 89.300781 77.777344 94.136719 86.921875 92.4375 87.820312 " fill-opacity="1" fill-rule="nonzero"/></g></g></g><g clip-path="url(#1f56980cd1)"><g clip-path="url(#aaad7c3f77)"><g clip-path="url(#1489430917)"><path fill="#ffe14c" d="M 32.375 36.195312 C 22.488281 48.875 21.042969 68.945312 38.738281 81.597656 C 55.066406 93.273438 73.824219 86.027344 82.800781 74.09375 C 91.777344 62.160156 91.742188 44.199219 75.527344 31.066406 C 59.765625 18.300781 41.179688 24.90625 32.375 36.195312 " fill-opacity="1" fill-rule="nonzero"/></g></g></g></svg>